<svg width="84" height="84" viewBox="0 0 84 84" fill="none" xmlns="http://www.w3.org/2000/svg">
<path d="M42 7C61.299 7 77 22.701 77 42C77 61.299 61.299 77 42 77C22.701 77 7 61.299 7 42C7 22.701 22.701 7 42 7ZM42 0C18.8055 0 0 18.8055 0 42C0 65.1945 18.8055 84 42 84C65.1945 84 84 65.1945 84 42C84 18.8055 65.1945 0 42 0ZM42 10.5C24.6015 10.5 10.5 24.6015 10.5 42C10.5 59.3985 24.6015 73.5 42 73.5C59.3985 73.5 73.5 59.3985 73.5 42C73.5 24.6015 59.3985 10.5 42 10.5ZM45.5 59.3145V63H42V59.507C38.3775 59.444 34.629 58.5795 31.5 56.9625L33.0925 51.2085C36.4385 52.507 40.894 53.886 44.38 53.0985C48.4015 52.1885 49.2275 48.0515 44.779 46.06C41.5205 44.541 31.556 43.2425 31.556 34.7095C31.556 29.939 35.1925 25.669 42 24.7345V21H45.5V24.563C48.0375 24.6295 50.8725 25.0705 54.047 26.033L52.78 31.801C50.092 30.856 47.124 29.9985 44.233 30.1735C39.0215 30.478 38.563 34.9895 42.1995 36.8795C48.188 39.6935 56 41.783 56 49.2905C56.007 55.3035 51.296 58.5025 45.5 59.3145Z" fill="white"/>
</svg>
