<svg width="93" height="93" viewBox="0 0 93 93" fill="none" xmlns="http://www.w3.org/2000/svg">
<path fill-rule="evenodd" clip-rule="evenodd" d="M90.5039 78.3688C90.5039 76.8397 89.2618 75.6001 87.7439 75.6001H75.5999C74.0756 75.6001 72.8399 76.8298 72.8399 78.3688V90.3201H90.5039V78.3688Z" stroke="#0A686C" stroke-width="4" stroke-linecap="round" stroke-linejoin="round"/>
<path fill-rule="evenodd" clip-rule="evenodd" d="M73.0239 59.967C73.0239 58.4389 71.7818 57.2002 70.2639 57.2002H58.1199C56.5956 57.2002 55.3599 58.4381 55.3599 59.967V90.3202H73.0239V59.967Z" stroke="#0A686C" stroke-width="4" stroke-linecap="round" stroke-linejoin="round"/>
<path fill-rule="evenodd" clip-rule="evenodd" d="M55.5439 41.5515C55.5439 40.0318 54.3018 38.7998 52.7839 38.7998H40.6399C39.1156 38.7998 37.8799 40.0351 37.8799 41.5515V90.3198H55.5439V41.5515Z" stroke="#0A686C" stroke-width="4" stroke-linecap="round" stroke-linejoin="round"/>
<path fill-rule="evenodd" clip-rule="evenodd" d="M37.144 23.1624C37.144 21.6367 35.9019 20.3999 34.384 20.3999H22.24C20.7157 20.3999 19.48 21.6432 19.48 23.1624V90.3199H37.144V23.1624Z" stroke="#0A686C" stroke-width="4" stroke-linecap="round" stroke-linejoin="round"/>
<path fill-rule="evenodd" clip-rule="evenodd" d="M19.6641 4.76455C19.6641 3.23773 18.422 2 16.9041 2H4.76006C3.23576 2 2.00006 3.23166 2.00006 4.76455V90.32H19.6641V4.76455Z" stroke="#0A686C" stroke-width="4" stroke-linecap="round" stroke-linejoin="round"/>
<path fill-rule="evenodd" clip-rule="evenodd" d="M85.271 16.9086L89.8596 12.32C90.2045 11.9751 90.4856 12.0916 90.4861 12.5816L90.5038 28.6973C90.5044 29.1942 90.1076 29.584 89.6176 29.5835L73.5019 29.5658C73.005 29.5653 72.8948 29.2848 73.2403 28.9393L77.8137 24.3659L63.6776 10.2297C62.6459 9.198 62.6463 7.52204 63.6803 6.48807L67.3933 2.7751C68.4245 1.74388 70.1024 1.73991 71.1349 2.77238L85.271 16.9086Z" stroke="#0A686C" stroke-width="4" stroke-linecap="round" stroke-linejoin="round"/>
</svg>
