<svg width="118" height="69" viewBox="0 0 118 69" fill="none" xmlns="http://www.w3.org/2000/svg">
<g filter="url(#filter0_d_112_10)">
<path d="M58.5321 32.98C44.144 32.98 32.438 44.6848 32.438 59.0729C32.438 60.052 33.2315 60.8467 34.2118 60.8467H82.8511C83.8303 60.8467 84.6249 60.052 84.6249 59.0729C84.6249 44.6848 72.9189 32.98 58.5321 32.98ZM36.0554 57.299C36.9636 45.6935 46.6983 36.5276 58.5321 36.5276C70.3658 36.5276 80.1005 45.6935 81.0075 57.299H36.0554Z" fill="#0A686C"/>
<path d="M58.1058 30.6374C66.5527 30.6374 73.4245 23.7656 73.4245 15.3187C73.4245 6.87177 66.5516 0 58.1058 0C49.6589 0 42.7871 6.87177 42.7871 15.3187C42.7871 23.7656 49.6589 30.6374 58.1058 30.6374ZM58.1058 3.54764C64.5956 3.54764 69.8769 8.82771 69.8769 15.3187C69.8769 21.8085 64.5956 27.0898 58.1058 27.0898C51.6148 27.0898 46.3347 21.8097 46.3347 15.3187C46.3347 8.82771 51.6148 3.54764 58.1058 3.54764Z" fill="#0A686C"/>
<path d="M23.8526 42.7681C26.7628 42.7681 29.621 43.5438 32.1186 45.0126C32.9629 45.5116 34.0509 45.2266 34.5464 44.3835C35.043 43.5391 34.7616 42.4512 33.9161 41.9545C30.8745 40.1653 27.3943 39.2205 23.8526 39.2205C12.9058 39.2205 4 48.1262 4 59.073C4 60.0522 4.79349 60.8469 5.77382 60.8469H28.2564C29.2367 60.8469 30.0302 60.0522 30.0302 59.073C30.0302 58.0939 29.2367 57.2992 28.2564 57.2992H7.64342C8.53033 49.1397 15.4612 42.7681 23.8526 42.7681Z" fill="#0A686C"/>
<path d="M23.5378 36.3879C30.0667 36.3879 35.3798 31.0759 35.3798 24.5459C35.3798 18.0159 30.0678 12.7039 23.5378 12.7039C17.0078 12.7039 11.6958 18.0159 11.6958 24.5459C11.6958 31.0747 17.0078 36.3879 23.5378 36.3879ZM23.5378 16.2515C28.1107 16.2515 31.8322 19.9718 31.8322 24.5459C31.8322 29.1188 28.1119 32.8402 23.5378 32.8402C18.9637 32.8402 15.2434 29.12 15.2434 24.5459C15.2434 19.9718 18.9637 16.2515 23.5378 16.2515Z" fill="#0A686C"/>
<path d="M93.354 39.2205C89.8135 39.2205 86.3333 40.1665 83.2906 41.9545C82.445 42.4512 82.1636 43.5379 82.6603 44.3823C83.1569 45.229 84.2472 45.5092 85.088 45.0126C87.5868 43.5438 90.445 42.7681 93.354 42.7681C101.745 42.7681 108.676 49.1397 109.563 57.2992H88.9538C87.9746 57.2992 87.18 58.0939 87.18 59.073C87.18 60.0522 87.9746 60.8469 88.9538 60.8469H111.433C112.412 60.8469 113.207 60.0522 113.207 59.073C113.207 48.1262 104.301 39.2205 93.354 39.2205Z" fill="#0A686C"/>
<path d="M93.6703 36.3879C100.199 36.3879 105.512 31.0759 105.512 24.5459C105.512 18.0159 100.2 12.7039 93.6703 12.7039C87.1403 12.7039 81.8271 18.0159 81.8271 24.5459C81.8283 31.0747 87.1403 36.3879 93.6703 36.3879ZM93.6703 16.2515C98.2433 16.2515 101.965 19.9718 101.965 24.5459C101.965 29.1188 98.2444 32.8402 93.6703 32.8402C89.0963 32.8402 85.3748 29.12 85.3748 24.5459C85.376 19.9718 89.0963 16.2515 93.6703 16.2515Z" fill="#0A686C"/>
</g>
<defs>
<filter id="filter0_d_112_10" x="0" y="0" width="117.207" height="68.8469" filterUnits="userSpaceOnUse" color-interpolation-filters="sRGB">
<feFlood flood-opacity="0" result="BackgroundImageFix"/>
<feColorMatrix in="SourceAlpha" type="matrix" values="0 0 0 0 0 0 0 0 0 0 0 0 0 0 0 0 0 0 127 0" result="hardAlpha"/>
<feOffset dy="4"/>
<feGaussianBlur stdDeviation="2"/>
<feComposite in2="hardAlpha" operator="out"/>
<feColorMatrix type="matrix" values="0 0 0 0 0 0 0 0 0 0 0 0 0 0 0 0 0 0 0.25 0"/>
<feBlend mode="normal" in2="BackgroundImageFix" result="effect1_dropShadow_112_10"/>
<feBlend mode="normal" in="SourceGraphic" in2="effect1_dropShadow_112_10" result="shape"/>
</filter>
</defs>
</svg>
