<svg width="1356" height="304" viewBox="0 0 1356 304" fill="none" xmlns="http://www.w3.org/2000/svg">
<path d="M60 133C60 88.8172 95.8172 53 140 53H1276C1320.18 53 1356 88.8172 1356 133V177C1356 221.183 1320.18 257 1276 257H140C95.8173 257 60 221.183 60 177V133Z" fill="#0A686C"/>
<ellipse cx="158.5" cy="152" rx="158.5" ry="152" fill="#0A686C"/>
<path d="M289.312 38.7068H237.31C234.582 38.7068 232.369 40.9184 232.369 43.6469V134.587H198.475V94.221V19.9401C198.475 17.2117 196.263 15 193.535 15H163.817C161.089 15 158.877 17.2117 158.877 19.9401V89.2804H147.96V61.9321C147.96 59.2036 145.748 56.9919 143.02 56.9919C140.292 56.9919 138.08 59.2036 138.08 61.9321V89.2804H132.736C130.008 89.2804 127.795 91.492 127.795 94.2205V118.255H102.51V99.972C102.51 97.2435 100.298 95.0318 97.5699 95.0318C94.8419 95.0318 92.6297 97.2435 92.6297 99.972V118.255H82.6879C79.9599 118.255 77.7478 120.467 77.7478 123.195V258.059C77.7478 260.788 79.9599 263 82.6879 263H289.312C292.04 263 294.252 260.788 294.252 258.059V43.6469C294.252 40.9184 292.04 38.7068 289.312 38.7068ZM127.795 253.12H87.6281V128.136H127.795V253.12V253.12ZM188.595 253.12H137.675V99.1611H188.594V253.12H188.595ZM188.595 89.2804H168.757V24.8803H188.595V89.2804ZM232.366 253.12H198.475V144.467H232.366V253.12ZM284.371 253.12H242.25V48.5871H284.371V253.12Z" fill="white"/>
<path d="M152.228 111.407C149.5 111.407 147.287 113.618 147.287 116.347V122.906C147.287 125.635 149.499 127.846 152.228 127.846C154.956 127.846 157.168 125.635 157.168 122.906V116.347C157.168 113.619 154.956 111.407 152.228 111.407Z" fill="white"/>
<path d="M173.3 111.407C170.572 111.407 168.36 113.618 168.36 116.347V122.906C168.36 125.635 170.572 127.846 173.3 127.846C176.028 127.846 178.24 125.635 178.24 122.906V116.347C178.24 113.619 176.028 111.407 173.3 111.407Z" fill="white"/>
<path d="M178.568 66.1011C175.84 66.1011 173.628 68.3127 173.628 71.0412V77.6006C173.628 80.3291 175.84 82.5408 178.568 82.5408C181.296 82.5408 183.508 80.3291 183.508 77.6006V71.0412C183.508 68.3127 181.296 66.1011 178.568 66.1011Z" fill="white"/>
<path d="M178.568 40.2874C175.84 40.2874 173.628 42.499 173.628 45.2275V51.7869C173.628 54.5154 175.84 56.727 178.568 56.727C181.296 56.727 183.508 54.5154 183.508 51.7869V45.2275C183.508 42.499 181.296 40.2874 178.568 40.2874Z" fill="white"/>
<path d="M152.228 140.168C149.5 140.168 147.287 142.38 147.287 145.108V151.668C147.287 154.396 149.499 156.608 152.228 156.608C154.956 156.608 157.168 154.396 157.168 151.668V145.108C157.168 142.38 154.956 140.168 152.228 140.168Z" fill="white"/>
<path d="M173.3 140.168C170.572 140.168 168.36 142.38 168.36 145.108V151.668C168.36 154.396 170.572 156.608 173.3 156.608C176.028 156.608 178.24 154.396 178.24 151.668V145.108C178.24 142.38 176.028 140.168 173.3 140.168Z" fill="white"/>
<path d="M152.228 166.911C149.5 166.911 147.287 169.122 147.287 171.851V178.411C147.287 181.139 149.499 183.351 152.228 183.351C154.956 183.351 157.168 181.139 157.168 178.411V171.851C157.168 169.123 154.956 166.911 152.228 166.911Z" fill="white"/>
<path d="M173.3 166.911C170.572 166.911 168.36 169.122 168.36 171.851V178.411C168.36 181.139 170.572 183.351 173.3 183.351C176.028 183.351 178.24 181.139 178.24 178.411V171.851C178.24 169.123 176.028 166.911 173.3 166.911Z" fill="white"/>
<path d="M152.228 195.672C149.5 195.672 147.287 197.884 147.287 200.613V207.172C147.287 209.901 149.499 212.113 152.228 212.113C154.956 212.113 157.168 209.901 157.168 207.172V200.613C157.168 197.884 154.956 195.672 152.228 195.672Z" fill="white"/>
<path d="M173.3 195.672C170.572 195.672 168.36 197.884 168.36 200.613V207.172C168.36 209.901 170.572 212.113 173.3 212.113C176.028 212.113 178.24 209.901 178.24 207.172V200.613C178.24 197.884 176.028 195.672 173.3 195.672Z" fill="white"/>
<path d="M152.228 224.434C149.5 224.434 147.287 226.645 147.287 229.374V235.934C147.287 238.662 149.499 240.874 152.228 240.874C154.956 240.874 157.168 238.662 157.168 235.934V229.374C157.168 226.645 154.956 224.434 152.228 224.434Z" fill="white"/>
<path d="M173.3 224.434C170.572 224.434 168.36 226.645 168.36 229.374V235.934C168.36 238.662 170.572 240.874 173.3 240.874C176.028 240.874 178.24 238.662 178.24 235.934V229.374C178.24 226.645 176.028 224.434 173.3 224.434Z" fill="white"/>
<path d="M254.956 111.407C252.228 111.407 250.016 113.618 250.016 116.347V122.906C250.016 125.635 252.228 127.846 254.956 127.846C257.684 127.846 259.896 125.635 259.896 122.906V116.347C259.896 113.619 257.684 111.407 254.956 111.407Z" fill="white"/>
<path d="M273.394 111.407C270.666 111.407 268.454 113.618 268.454 116.347V122.906C268.454 125.635 270.666 127.846 273.394 127.846C276.122 127.846 278.334 125.635 278.334 122.906V116.347C278.334 113.619 276.122 111.407 273.394 111.407Z" fill="white"/>
<path d="M254.956 140.168C252.228 140.168 250.016 142.38 250.016 145.108V151.668C250.016 154.396 252.228 156.608 254.956 156.608C257.684 156.608 259.896 154.396 259.896 151.668V145.108C259.896 142.38 257.684 140.168 254.956 140.168Z" fill="white"/>
<path d="M273.394 140.168C270.666 140.168 268.454 142.38 268.454 145.108V151.668C268.454 154.396 270.666 156.608 273.394 156.608C276.122 156.608 278.334 154.396 278.334 151.668V145.108C278.334 142.38 276.122 140.168 273.394 140.168Z" fill="white"/>
<path d="M254.956 166.911C252.228 166.911 250.016 169.122 250.016 171.851V178.411C250.016 181.139 252.228 183.351 254.956 183.351C257.684 183.351 259.896 181.139 259.896 178.411V171.851C259.896 169.123 257.684 166.911 254.956 166.911Z" fill="white"/>
<path d="M273.394 166.911C270.666 166.911 268.454 169.122 268.454 171.851V178.411C268.454 181.139 270.666 183.351 273.394 183.351C276.122 183.351 278.334 181.139 278.334 178.411V171.851C278.334 169.123 276.122 166.911 273.394 166.911Z" fill="white"/>
<path d="M254.956 56.5051C252.228 56.5051 250.016 58.7168 250.016 61.4453V68.0052C250.016 70.7336 252.228 72.9453 254.956 72.9453C257.684 72.9453 259.896 70.7336 259.896 68.0052V61.4453C259.896 58.7168 257.684 56.5051 254.956 56.5051Z" fill="white"/>
<path d="M273.394 56.5051C270.666 56.5051 268.454 58.7168 268.454 61.4453V68.0052C268.454 70.7336 270.666 72.9453 273.394 72.9453C276.122 72.9453 278.334 70.7336 278.334 68.0052V61.4453C278.334 58.7168 276.122 56.5051 273.394 56.5051Z" fill="white"/>
<path d="M254.956 83.2478C252.228 83.2478 250.016 85.4595 250.016 88.1879V94.7473C250.016 97.4758 252.228 99.6875 254.956 99.6875C257.684 99.6875 259.896 97.4758 259.896 94.7473V88.1879C259.896 85.4595 257.684 83.2478 254.956 83.2478Z" fill="white"/>
<path d="M273.394 83.2478C270.666 83.2478 268.454 85.4595 268.454 88.1879V94.7473C268.454 97.4758 270.666 99.6875 273.394 99.6875C276.122 99.6875 278.334 97.4758 278.334 94.7473V88.1879C278.334 85.4595 276.122 83.2478 273.394 83.2478Z" fill="white"/>
<path d="M254.956 195.672C252.228 195.672 250.016 197.884 250.016 200.613V207.172C250.016 209.901 252.228 212.113 254.956 212.113C257.684 212.113 259.896 209.901 259.896 207.172V200.613C259.896 197.884 257.684 195.672 254.956 195.672Z" fill="white"/>
<path d="M273.394 195.672C270.666 195.672 268.454 197.884 268.454 200.613V207.172C268.454 209.901 270.666 212.113 273.394 212.113C276.122 212.113 278.334 209.901 278.334 207.172V200.613C278.334 197.884 276.122 195.672 273.394 195.672Z" fill="white"/>
<path d="M254.956 224.434C252.228 224.434 250.016 226.645 250.016 229.374V235.934C250.016 238.662 252.228 240.874 254.956 240.874C257.684 240.874 259.896 238.662 259.896 235.934V229.374C259.896 226.645 257.684 224.434 254.956 224.434Z" fill="white"/>
<path d="M273.394 224.434C270.666 224.434 268.454 226.645 268.454 229.374V235.934C268.454 238.662 270.666 240.874 273.394 240.874C276.122 240.874 278.334 238.662 278.334 235.934V229.374C278.334 226.645 276.122 224.434 273.394 224.434Z" fill="white"/>
<path d="M116.93 137.747H99.0197C96.2917 137.747 94.0796 139.959 94.0796 142.687C94.0796 145.416 96.2917 147.628 99.0197 147.628H116.931C119.659 147.628 121.871 145.416 121.871 142.687C121.871 139.959 119.659 137.747 116.93 137.747Z" fill="white"/>
<path d="M116.93 156.887H99.0197C96.2917 156.887 94.0796 159.099 94.0796 161.827C94.0796 164.556 96.2917 166.767 99.0197 166.767H116.931C119.659 166.767 121.871 164.556 121.871 161.827C121.871 159.099 119.659 156.887 116.93 156.887Z" fill="white"/>
<path d="M116.93 176.645H99.0197C96.2917 176.645 94.0796 178.856 94.0796 181.585C94.0796 184.313 96.2917 186.525 99.0197 186.525H116.931C119.659 186.525 121.871 184.313 121.871 181.585C121.871 178.856 119.659 176.645 116.93 176.645Z" fill="white"/>
<path d="M116.93 195.784H99.0197C96.2917 195.784 94.0796 197.996 94.0796 200.724C94.0796 203.453 96.2917 205.664 99.0197 205.664H116.931C119.659 205.664 121.871 203.453 121.871 200.724C121.871 197.996 119.659 195.784 116.93 195.784Z" fill="white"/>
<path d="M116.93 215.542H99.0197C96.2917 215.542 94.0796 217.753 94.0796 220.482C94.0796 223.21 96.2917 225.422 99.0197 225.422H116.931C119.659 225.422 121.871 223.21 121.871 220.482C121.871 217.754 119.659 215.542 116.93 215.542Z" fill="white"/>
<path d="M116.93 234.681H99.0197C96.2917 234.681 94.0796 236.893 94.0796 239.621C94.0796 242.35 96.2917 244.561 99.0197 244.561H116.931C119.659 244.561 121.871 242.35 121.871 239.621C121.871 236.893 119.659 234.681 116.93 234.681Z" fill="white"/>
<path d="M221.24 151.445H208.596C205.868 151.445 203.656 153.656 203.656 156.385C203.656 159.113 205.868 161.325 208.596 161.325H221.24C223.968 161.325 226.18 159.113 226.18 156.385C226.18 153.656 223.968 151.445 221.24 151.445Z" fill="white"/>
<path d="M221.24 174.625H208.596C205.868 174.625 203.656 176.836 203.656 179.565C203.656 182.293 205.868 184.505 208.596 184.505H221.24C223.968 184.505 226.18 182.293 226.18 179.565C226.18 176.837 223.968 174.625 221.24 174.625Z" fill="white"/>
<path d="M221.24 198.331H208.596C205.868 198.331 203.656 200.542 203.656 203.271C203.656 205.999 205.868 208.211 208.596 208.211H221.24C223.968 208.211 226.18 205.999 226.18 203.271C226.18 200.543 223.968 198.331 221.24 198.331Z" fill="white"/>
<path d="M221.24 222.564H208.596C205.868 222.564 203.656 224.776 203.656 227.505C203.656 230.233 205.868 232.445 208.596 232.445H221.24C223.968 232.445 226.18 230.233 226.18 227.505C226.18 224.776 223.968 222.564 221.24 222.564Z" fill="white"/>
<path d="M143.02 36.2432C140.292 36.2432 138.08 38.4548 138.08 41.1833V47.1116C138.08 49.8401 140.292 52.0517 143.02 52.0517C145.748 52.0517 147.96 49.8401 147.96 47.1116V41.1833C147.96 38.4548 145.748 36.2432 143.02 36.2432Z" fill="white"/>
</svg>
