<svg width="65" height="86" viewBox="0 0 65 86" fill="none" xmlns="http://www.w3.org/2000/svg">
<path d="M32.5004 1.00015C28.2519 0.879801 24.0231 1.62277 20.0701 3.18409C16.1171 4.74541 12.5219 7.0926 9.50233 10.0836C6.48272 13.0746 4.10141 16.6472 2.50254 20.5852C0.903664 24.5232 0.120476 28.7447 0.200377 32.9941C0.200377 59.7862 30.1204 84.5722 31.3784 85.5922C31.6863 85.8555 32.0782 86.0003 32.4834 86.0003C32.8886 86.0003 33.2804 85.8555 33.5884 85.5922C34.9144 84.4022 64.8004 57.1342 64.8004 32.9941C64.8803 28.7447 64.0971 24.5232 62.4982 20.5852C60.8993 16.6472 58.518 13.0746 55.4984 10.0836C52.4788 7.0926 48.8837 4.74541 44.9306 3.18409C40.9776 1.62277 36.7489 0.879801 32.5004 1.00015ZM32.5004 48.6002C29.4743 48.6002 26.5162 47.7028 24.0002 46.0216C21.4841 44.3405 19.523 41.9509 18.365 39.1552C17.207 36.3595 16.904 33.2832 17.4944 30.3153C18.0847 27.3474 19.5419 24.6212 21.6816 22.4814C23.8214 20.3417 26.5476 18.8845 29.5155 18.2941C32.4834 17.7038 35.5597 18.0068 38.3554 19.1648C41.1511 20.3228 43.5407 22.2839 45.2219 24.7999C46.903 27.316 47.8004 30.2741 47.8004 33.3001C47.8004 37.358 46.1884 41.2496 43.3191 44.1189C40.4498 46.9882 36.5582 48.6002 32.5004 48.6002Z" fill="white"/>
</svg>
