<svg width="224" height="216" viewBox="0 0 224 216" fill="none" xmlns="http://www.w3.org/2000/svg">
<g filter="url(#filter0_d_128_2)">
<ellipse cx="112" cy="104" rx="108" ry="104" fill="#297B7E"/>
<path d="M58.6335 94.7603L94.5708 62.09C97.2933 59.3675 100.56 62.09 100.56 66.4461V82.7812C126.152 82.7812 147.932 98.5718 158.278 119.807C162.089 126.886 164.267 134.509 165.901 142.132C166.99 147.577 158.822 150.3 155.555 145.399C143.576 126.342 123.43 113.818 100.56 113.818V131.787C100.56 136.143 97.2933 138.865 94.5708 136.143L58.6335 103.472C56.4555 101.294 56.4555 96.9383 58.6335 94.7603Z" fill="white"/>
</g>
<defs>
<filter id="filter0_d_128_2" x="0" y="0" width="224" height="216" filterUnits="userSpaceOnUse" color-interpolation-filters="sRGB">
<feFlood flood-opacity="0" result="BackgroundImageFix"/>
<feColorMatrix in="SourceAlpha" type="matrix" values="0 0 0 0 0 0 0 0 0 0 0 0 0 0 0 0 0 0 127 0" result="hardAlpha"/>
<feOffset dy="4"/>
<feGaussianBlur stdDeviation="2"/>
<feComposite in2="hardAlpha" operator="out"/>
<feColorMatrix type="matrix" values="0 0 0 0 0 0 0 0 0 0 0 0 0 0 0 0 0 0 0.25 0"/>
<feBlend mode="normal" in2="BackgroundImageFix" result="effect1_dropShadow_128_2"/>
<feBlend mode="normal" in="SourceGraphic" in2="effect1_dropShadow_128_2" result="shape"/>
</filter>
</defs>
</svg>
